# xmcd
#
# Track frame offsets: 
#        150
#        11589
#        28363
#        40823
#        55116
#        77432
#        90868
#        101630
#        112293
#        123725
#        137661
#
# Disc length: 2707 seconds
#
# Revision: 0
# Processed by: cddbd v1.5.2PL0 Copyright (c) Steve Scherf et al.
# Submitted via: ExactAudioCopyFreeDBPlugin 1.0
#
DISCID=8c0a910b
DTITLE=Boogie Beasts - Come and Get Me
DYEAR=2016
DGENRE=Blues
TTITLE0=Blast
TTITLE1=Calling my name
TTITLE2=Shake 'em
TTITLE3=Dig
TTITLE4=Coming home to you
TTITLE5=Would you please shut up
TTITLE6=Do her thing
TTITLE7=Rainy day
TTITLE8=On my own again
TTITLE9=Soul keeps crying
TTITLE10=Like a fool
EXTD=
EXTT0=
EXTT1=
EXTT2=
EXTT3=
EXTT4=
EXTT5=
EXTT6=
EXTT7=
EXTT8=
EXTT9=
EXTT10=
PLAYORDER=
